<mxfile host="app.diagrams.net" agent="Mozilla/5.0 (Windows NT 10.0; Win64; x64) AppleWebKit/537.36 (KHTML, like Gecko) Chrome/136.0.0.0 Safari/537.36" version="27.0.6">
  <diagram name="Page-1" id="_YhxkOAKPK6Q6FbJyAhl">
    <mxGraphModel dx="786" dy="559" grid="1" gridSize="10" guides="1" tooltips="1" connect="1" arrows="1" fold="1" page="1" pageScale="1" pageWidth="850" pageHeight="1100" math="0" shadow="0">
      <root>
        <mxCell id="0" />
        <mxCell id="1" parent="0" />
        <mxCell id="g5DjLNtK0uSp5qYk3Gmz-1" value="&lt;b&gt;&lt;font style=&quot;font-size: 15px;&quot;&gt;Start&lt;/font&gt;&lt;/b&gt;" style="ellipse;whiteSpace=wrap;html=1;fontFamily=Times New Roman;" vertex="1" parent="1">
          <mxGeometry x="305" y="70" width="215" height="80" as="geometry" />
        </mxCell>
        <mxCell id="g5DjLNtK0uSp5qYk3Gmz-2" value="&lt;b&gt;Initialize Sensor&lt;/b&gt;" style="rounded=0;whiteSpace=wrap;html=1;fontFamily=Times New Roman;fontSize=15;" vertex="1" parent="1">
          <mxGeometry x="317.5" y="200" width="190" height="40" as="geometry" />
        </mxCell>
        <mxCell id="g5DjLNtK0uSp5qYk3Gmz-3" value="" style="endArrow=classic;html=1;rounded=0;" edge="1" parent="1">
          <mxGeometry width="50" height="50" relative="1" as="geometry">
            <mxPoint x="400" y="150" as="sourcePoint" />
            <mxPoint x="400" y="200" as="targetPoint" />
          </mxGeometry>
        </mxCell>
        <mxCell id="g5DjLNtK0uSp5qYk3Gmz-4" value="&lt;b&gt;Arduino&lt;/b&gt;" style="rounded=1;whiteSpace=wrap;html=1;fontFamily=Times New Roman;fontSize=15;" vertex="1" parent="1">
          <mxGeometry x="320" y="290" width="190" height="40" as="geometry" />
        </mxCell>
        <mxCell id="g5DjLNtK0uSp5qYk3Gmz-5" value="" style="endArrow=classic;html=1;rounded=0;" edge="1" parent="1">
          <mxGeometry width="50" height="50" relative="1" as="geometry">
            <mxPoint x="400" y="240" as="sourcePoint" />
            <mxPoint x="400" y="290" as="targetPoint" />
          </mxGeometry>
        </mxCell>
        <mxCell id="g5DjLNtK0uSp5qYk3Gmz-7" value="" style="endArrow=classic;html=1;rounded=0;" edge="1" parent="1">
          <mxGeometry width="50" height="50" relative="1" as="geometry">
            <mxPoint x="400" y="330" as="sourcePoint" />
            <mxPoint x="400" y="380" as="targetPoint" />
          </mxGeometry>
        </mxCell>
        <mxCell id="g5DjLNtK0uSp5qYk3Gmz-8" value="&lt;b&gt;Internet&lt;/b&gt;&lt;div&gt;&lt;b&gt;available&lt;/b&gt;&lt;/div&gt;" style="rhombus;whiteSpace=wrap;html=1;fontFamily=Times New Roman;fontSize=15;" vertex="1" parent="1">
          <mxGeometry x="330" y="380" width="137.5" height="100" as="geometry" />
        </mxCell>
        <mxCell id="g5DjLNtK0uSp5qYk3Gmz-9" value="" style="endArrow=classic;html=1;rounded=0;exitX=0;exitY=0.5;exitDx=0;exitDy=0;entryX=0;entryY=0.75;entryDx=0;entryDy=0;" edge="1" parent="1" source="g5DjLNtK0uSp5qYk3Gmz-8" target="g5DjLNtK0uSp5qYk3Gmz-4">
          <mxGeometry width="50" height="50" relative="1" as="geometry">
            <mxPoint x="230" y="455" as="sourcePoint" />
            <mxPoint x="270" y="290" as="targetPoint" />
            <Array as="points">
              <mxPoint x="270" y="430" />
              <mxPoint x="270" y="320" />
            </Array>
          </mxGeometry>
        </mxCell>
        <mxCell id="g5DjLNtK0uSp5qYk3Gmz-11" value="&lt;b&gt;Mobile App&lt;/b&gt;" style="rounded=0;whiteSpace=wrap;html=1;fontFamily=Times New Roman;fontSize=15;" vertex="1" parent="1">
          <mxGeometry x="303.75" y="530" width="190" height="40" as="geometry" />
        </mxCell>
        <mxCell id="g5DjLNtK0uSp5qYk3Gmz-13" value="" style="endArrow=classic;html=1;rounded=0;" edge="1" parent="1">
          <mxGeometry width="50" height="50" relative="1" as="geometry">
            <mxPoint x="398.25" y="480" as="sourcePoint" />
            <mxPoint x="398.25" y="530" as="targetPoint" />
          </mxGeometry>
        </mxCell>
      </root>
    </mxGraphModel>
  </diagram>
</mxfile>
